<?xml version="1.0" standalone="no"?>
<!DOCTYPE svg PUBLIC "-//W3C//DTD SVG 20010904//EN"
 "http://www.w3.org/TR/2001/REC-SVG-20010904/DTD/svg10.dtd">
<svg version="1.0"
    xmlns="http://www.w3.org/2000/svg" width="48px" height="48px" viewBox="0 0 300.000000 300.000000" preserveAspectRatio="xMidYMid meet">
    <metadata>
Created by potrace 1.10, written by Peter Selinger 2001-2011
    </metadata>
    <g transform="translate(0.000000,300.000000) scale(0.100000,-0.100000)" fill="#000000" stroke="none">
        <path d="M1280 2720 c-244 -43 -482 -165 -664 -340 -207 -199 -334 -435 -382
-714 -21 -116 -14 -333 15 -456 72 -315 245 -580 498 -762 149 -107 363 -198
543 -229 105 -18 335 -16 445 4 392 71 729 318 908 664 258 500 171 1072 -224
1470 -298 300 -725 436 -1139 363z m315 -31 c3 -3 -9 -6 -27 -7 -49 -1 -100
-67 -68 -87 14 -9 12 -25 -2 -19 -7 2 -24 22 -37 43 -13 22 -35 45 -48 52 -30
16 -19 27 32 31 45 3 141 -5 150 -13z m-302 -32 c-25 -30 -30 -32 -48 -20 -11
7 -31 13 -45 14 -24 1 -24 1 5 11 17 5 48 14 70 18 22 4 42 8 43 9 2 0 -9 -14
-25 -32z m114 -22 c13 -9 23 -28 25 -48 2 -24 8 -32 23 -32 30 0 27 -39 -3
-43 -15 -2 -22 -9 -18 -17 6 -16 -19 -39 -34 -30 -5 3 -10 15 -10 26 0 16 -7
19 -50 19 l-50 0 0 45 c0 76 62 119 117 80z m471 9 c12 -4 22 -12 22 -20 0
-23 -15 -23 -43 2 -28 24 -22 29 21 18z m-738 -24 c-11 -21 -54 -28 -65 -11
-7 13 24 30 53 31 20 0 21 -3 12 -20z m655 -2 l50 -13 3 -87 c3 -82 1 -88 -17
-88 -14 0 -21 8 -23 28 -3 26 -7 28 -78 39 -41 6 -100 12 -131 12 -60 1 -91
19 -66 39 14 12 181 0 243 -17 32 -9 34 -8 34 15 0 16 -7 25 -22 29 -56 12
-158 25 -205 25 -52 0 -70 10 -57 31 9 15 196 5 269 -13z m-555 -22 c0 -19 -7
-23 -53 -31 -33 -6 -37 -5 -37 13 0 13 8 22 23 25 47 9 67 7 67 -7z m721 2 c0
-7 0 -54 -1 -104 -2 -134 -2 -134 102 -195 254 -150 449 -463 458 -734 3 -75
2 -77 -22 -73 -20 3 -24 12 -35 94 -20 155 -59 263 -137 383 -152 236 -388
374 -704 413 -96 12 -119 25 -91 53 18 18 136 5 262 -27 118 -30 121 -27 125
88 3 102 6 114 27 114 8 0 15 -6 16 -12z m113 -35 c11 -7 -23 -20 -56 -22 -17
-1 -25 28 -12 42 6 5 45 -6 68 -20z m-1097 -1 c-9 -10 -20 -33 -23 -50 -4 -18
-10 -35 -15 -37 -9 -6 -89 26 -89 36 0 9 112 68 129 69 11 0 11 -4 -2 -18z
m127 -13 c14 -11 26 -29 26 -39 0 -16 4 -17 34 -8 40 13 86 3 86 -17 0 -10
-10 -15 -31 -15 -18 0 -67 -12 -111 -26 -64 -22 -78 -29 -73 -44 3 -9 -1 -22
-8 -29 -23 -19 -36 9 -39 83 -3 63 -1 69 25 92 34 29 56 30 91 3z m1178 -119
l47 -37 -52 -1 c-64 -2 -81 8 -83 50 -1 19 -10 39 -23 49 -12 10 -21 20 -21
23 0 9 76 -40 132 -84z m-161 53 c47 -25 60 -45 39 -58 -5 -3 -27 6 -49 20
-45 28 -61 31 -61 13 0 -7 33 -31 73 -52 39 -21 80 -46 90 -54 14 -12 22 -13
43 -4 38 18 41 16 105 -45 63 -60 68 -70 43 -80 -10 -4 -33 12 -68 46 -43 43
-55 50 -64 38 -9 -11 -6 -19 13 -37 29 -28 32 -50 7 -50 -19 0 -47 26 -74 70
-8 14 -51 45 -94 69 -100 56 -114 68 -114 101 0 56 37 64 111 23z m-603 -6 c2
-10 -3 -17 -11 -17 -16 0 -30 24 -19 34 10 10 27 1 30 -17z m-614 -39 c12 -17
18 -20 28 -10 30 30 39 -3 12 -44 -22 -33 -70 -57 -99 -50 -26 7 -50 -16 -50
-48 0 -29 -39 -29 -43 1 -4 28 45 83 78 87 46 4 67 30 35 42 -16 7 -77 -35
-117 -80 -20 -22 -31 -27 -39 -19 -20 20 1 52 64 98 70 50 108 57 131 23z
m571 -18 c0 -22 -5 -26 -55 -33 -200 -29 -343 -76 -467 -153 -132 -82 -224
-181 -303 -325 -43 -80 -49 -113 -24 -123 22 -9 41 9 63 60 53 119 159 241
277 320 73 49 271 140 281 130 3 -2 -18 -25 -45 -51 -52 -48 -126 -149 -179
-245 -36 -65 -103 -240 -103 -270 l0 -21 -29 20 c-35 26 -47 26 -56 4 -6 -17
11 -37 57 -68 12 -8 13 -19 5 -55 -8 -39 -11 -42 -22 -27 -7 9 -17 17 -24 17
-6 0 -11 6 -11 14 0 16 -38 66 -50 66 -5 0 -11 -8 -13 -17 -3 -10 -3 12 -2 50
3 47 9 73 21 85 16 15 17 15 12 0 -8 -19 26 -55 36 -39 4 6 21 8 39 5 30 -6
29 -4 -22 31 -49 34 -53 39 -47 68 4 18 18 56 32 85 14 29 24 55 22 58 -8 8
-90 -110 -115 -165 -13 -29 -26 -73 -30 -97 -8 -63 -27 -69 -26 -8 0 6 -8 16
-19 23 -18 11 -19 9 -16 -26 3 -35 9 -41 88 -93 163 -107 311 -159 470 -166
109 -4 214 17 295 58 50 26 160 116 151 125 -8 8 -61 -25 -98 -61 l-38 -37 0
51 0 50 50 2 c28 1 63 2 79 3 16 1 48 17 72 38 64 52 170 101 291 136 122 35
188 63 214 92 16 18 16 19 -3 19 -15 0 -28 15 -47 54 -15 30 -33 60 -42 67
-10 8 -7 -1 7 -25 12 -21 27 -54 34 -74 12 -34 12 -37 -13 -49 -14 -7 -26 -12
-26 -11 -1 2 -15 36 -32 77 -16 41 -34 76 -40 78 -6 2 -16 -8 -22 -22 -10 -21
-8 -32 8 -63 24 -45 25 -51 3 -69 -17 -13 -16 -14 5 -8 28 8 29 -10 1 -25 -11
-7 -22 -10 -23 -8 -1 2 -13 28 -25 58 -13 30 -36 79 -52 108 l-30 53 25 30
c13 16 27 38 31 49 8 25 27 26 50 1 16 -19 16 -21 -4 -50 -30 -42 -26 -47 13
-17 19 14 39 26 44 26 22 0 178 -192 198 -243 8 -22 -99 -72 -241 -112 -165
-46 -220 -76 -346 -186 -120 -105 -207 -151 -329 -175 -216 -43 -470 27 -722
198 l-96 66 -11 -62 c-6 -35 -11 -70 -11 -80 0 -13 -7 -17 -27 -14 -27 3 -28
5 -25 48 10 143 67 301 158 438 35 53 64 102 64 109 0 25 -24 63 -40 63 -35 0
-54 52 -28 78 27 27 78 -2 78 -44 0 -13 8 -28 18 -33 23 -12 46 -1 122 58 121
93 345 181 510 200 99 11 105 10 105 -19z m-805 -73 c0 -14 -16 -40 -40 -65
-22 -22 -40 -50 -40 -62 0 -18 -3 -20 -14 -11 -9 8 -21 8 -40 1 -29 -11 -33
-4 -11 19 8 9 40 44 71 79 32 34 61 62 66 62 4 0 8 -11 8 -23z m808 -134 c-3
-118 -3 -118 -27 -115 -27 4 -41 -12 -34 -39 4 -13 14 -19 34 -19 28 0 29 -1
29 -55 l0 -55 -35 0 c-31 0 -35 -3 -35 -25 0 -22 4 -25 33 -25 l34 0 -1 -85 0
-86 -84 3 c-50 2 -86 -1 -88 -7 -9 -26 16 -37 96 -42 l82 -6 -6 -61 c-3 -34
-5 -62 -5 -63 -3 -11 -34 15 -46 40 -19 38 -19 35 8 40 12 2 3 5 -20 6 -23 0
-50 4 -60 7 -13 4 -11 0 7 -16 31 -27 60 -70 60 -89 0 -8 -3 -11 -6 -8 -4 3
-15 2 -25 -4 -15 -8 -25 -2 -56 31 -20 23 -49 48 -64 56 -59 30 -165 63 -186
58 -26 -7 -113 24 -113 40 0 45 117 336 135 336 3 0 27 -16 54 -35 63 -46 120
-65 192 -65 55 0 59 1 59 24 0 21 -5 24 -64 29 -65 6 -137 35 -186 75 -24 19
-24 20 -6 47 17 25 18 26 36 10 11 -10 26 -15 35 -12 20 8 19 44 -2 56 -16 9
-13 15 27 56 48 49 167 115 207 115 l24 0 -3 -117z m147 96 c39 -15 77 -42
135 -96 44 -41 80 -80 80 -85 0 -6 -8 -4 -17 3 -16 13 -17 12 -4 -3 7 -10 17
-16 21 -13 18 11 141 -214 139 -254 0 -10 -2 -11 -6 -4 -3 8 -14 11 -29 7 -20
-5 -25 -1 -34 22 -6 16 -27 62 -48 102 -45 90 -82 115 -135 92 -18 -7 -65 -15
-105 -18 -55 -3 -72 -7 -69 -17 3 -7 0 -18 -6 -24 -8 -8 13 -11 80 -11 72 0
92 3 97 15 11 29 53 17 85 -24 29 -37 30 -39 12 -55 -24 -22 -35 -20 -51 8
-12 23 -14 24 -36 10 -23 -15 -23 -16 -4 -47 14 -23 16 -34 8 -44 -20 -24 -43
-14 -63 30 -18 35 -26 43 -54 45 -19 2 -45 1 -59 -3 -21 -5 -23 -8 -11 -16 12
-8 12 -10 -1 -19 -11 -7 -5 -10 26 -10 22 0 49 -6 59 -14 27 -19 13 -46 -25
-46 -27 0 -30 -3 -30 -30 0 -16 4 -30 10 -30 36 0 113 25 141 46 19 14 48 32
64 39 17 8 37 20 47 27 22 16 48 -5 48 -38 0 -22 -30 -40 -56 -32 -18 5 -53
-22 -56 -44 -2 -19 -15 -26 -64 -39 -34 -9 -89 -20 -123 -24 l-61 -7 0 311 c0
355 -9 329 95 290z m114 12 c22 -14 9 -30 -17 -20 -13 5 -20 13 -17 19 8 12
16 12 34 1z m109 -51 c116 -45 118 -47 86 -93 -14 -21 -27 -37 -28 -35 -1 2
-35 38 -76 81 -40 42 -71 77 -68 77 4 0 42 -14 86 -30z m683 -97 c5 -7 9 -15
9 -19 0 -4 7 -16 17 -26 19 -22 6 -23 -21 -3 -11 8 -29 15 -41 15 -12 0 -32
11 -44 24 -21 23 -22 27 -10 61 l14 37 33 -39 c18 -21 37 -43 43 -50z m-183
18 c9 -5 29 -14 44 -21 17 -8 34 -29 45 -56 20 -50 35 -55 51 -19 7 16 17 23
27 19 22 -9 18 -31 -9 -59 -16 -16 -24 -35 -23 -51 3 -35 -20 -42 -33 -12 -6
13 -24 31 -41 40 -33 20 -38 38 -9 38 19 0 19 1 2 32 -10 18 -31 36 -50 42
-38 13 -57 31 -48 45 9 13 21 14 44 2z m-1768 -24 c0 -6 -16 -35 -36 -62 -20
-28 -49 -76 -65 -107 -32 -64 -39 -70 -59 -58 -12 8 -11 17 9 57 41 84 112
183 132 183 11 0 19 -6 19 -13z m56 -52 c3 -8 -14 -47 -40 -87 -73 -117 -76
-121 -92 -108 -16 14 -6 38 63 143 45 68 59 79 69 52z m1954 -42 c8 -16 21
-36 29 -46 19 -23 6 -35 -16 -15 -10 8 -26 18 -35 21 -19 7 -22 24 -12 51 9
23 19 20 34 -11z m14 -133 c50 -112 66 -167 51 -180 -10 -8 -17 -6 -29 12 -9
12 -16 28 -16 36 0 7 -16 47 -35 89 -40 86 -43 103 -16 103 13 0 26 -18 45
-60z m-76 -37 c29 -57 55 -142 48 -158 -7 -20 -25 -19 -33 3 -3 9 -20 53 -39
96 -18 44 -31 83 -28 88 12 19 35 6 52 -29z m-2060 -29 c28 -19 30 -74 3 -98
-26 -24 -124 -19 -129 6 -3 14 6 17 50 20 45 3 53 6 53 23 0 16 -8 21 -40 23
-44 4 -61 14 -51 31 11 16 88 13 114 -5z m1877 -85 c6 -23 0 -32 -41 -63 -26
-20 -65 -41 -88 -48 -23 -6 -48 -17 -57 -25 -19 -16 -41 -17 -56 -2 -15 15
-121 -13 -195 -53 -85 -45 -97 -66 -100 -179 l-3 -94 -39 -6 c-32 -5 -51 -19
-105 -77 -105 -112 -133 -119 -129 -31 l3 60 53 18 c108 37 162 105 162 202 0
54 2 58 44 97 66 61 173 109 281 127 77 12 113 27 124 51 11 25 39 32 57 14 7
-7 20 0 39 20 31 32 40 30 50 -11z m390 -109 c16 -76 20 -160 8 -160 -19 1
-43 29 -43 50 0 26 -18 95 -32 126 -8 17 -5 28 13 53 28 38 33 32 54 -69z
m-2399 65 c22 -33 15 -55 -23 -76 -39 -22 -42 -15 -28 64 7 43 27 48 51 12z
m85 -110 c-5 -63 -8 -70 -28 -73 -18 -3 -23 2 -23 17 0 12 -6 21 -15 21 -8 0
-15 -9 -15 -20 0 -14 -7 -20 -21 -20 -17 0 -20 5 -17 38 3 35 5 37 41 40 36 3
37 4 37 42 0 39 17 56 36 36 6 -7 8 -37 5 -81z m515 70 c-3 -8 -1 -15 4 -15 6
0 10 -9 10 -20 0 -26 -12 -26 -28 0 -10 16 -10 23 0 35 17 19 22 19 14 0z
m583 -8 c8 -10 7 -18 -2 -31 -12 -16 -14 -16 -26 -2 -14 16 -9 46 7 46 5 0 15
-6 21 -13z m866 -24 c5 -27 3 -38 -9 -45 -71 -40 -71 -132 1 -166 33 -16 33
-17 27 -62 -11 -84 -14 -88 -36 -44 -35 69 -99 124 -185 157 -36 14 -43 14
-53 2 -17 -20 -47 -19 -58 2 -9 15 -13 15 -56 -1 -46 -18 -67 -40 -59 -63 6
-17 33 -16 57 2 44 33 167 9 236 -45 46 -37 75 -87 91 -158 9 -44 7 -55 -15
-107 -33 -74 -105 -181 -168 -250 -49 -54 -138 -125 -154 -125 -5 1 -21 11
-36 23 l-28 22 44 85 c43 82 78 184 91 263 9 57 35 31 35 -35 0 -53 17 -71 46
-47 21 18 15 111 -10 138 -11 12 -14 21 -7 26 17 10 13 55 -5 62 -9 3 -25 1
-36 -6 -18 -11 -19 -10 -16 16 2 21 9 29 27 31 13 2 28 -1 34 -7 6 -6 19 -11
30 -11 14 0 18 6 15 28 -2 22 -11 30 -42 40 -77 25 -183 -9 -213 -68 -7 -14
-13 -59 -13 -101 0 -42 -3 -91 -6 -108 -8 -40 -36 -57 -58 -36 -18 18 -38 19
-54 3 -21 -21 -13 -45 18 -58 25 -10 37 -10 67 1 61 24 77 56 83 168 4 78 9
103 24 120 33 36 38 25 31 -66 -21 -305 -197 -561 -424 -619 -39 -10 -67 -23
-65 -28 2 -6 -5 -17 -17 -24 -22 -14 -49 -2 -49 23 0 7 -16 16 -36 20 -92 17
-207 90 -281 178 -47 55 -116 180 -106 191 3 3 23 6 43 6 57 0 80 14 314 195
32 25 61 43 65 40 3 -4 6 -99 6 -211 l1 -205 -76 3 c-69 3 -75 5 -78 26 -4 24
-2 24 68 23 47 -1 81 11 62 23 -6 4 -8 14 -5 23 5 13 1 15 -23 9 -59 -15 -133
0 -157 30 -32 41 -121 24 -104 -20 7 -18 43 -24 79 -15 20 5 31 2 46 -14 18
-19 19 -25 7 -46 -9 -19 -10 -29 -2 -43 9 -14 7 -21 -11 -38 -18 -17 -20 -25
-12 -40 14 -27 18 -25 12 5 l-4 25 91 0 c87 0 91 1 91 22 0 12 3 18 7 15 5 -6
9 -50 13 -147 l1 -35 14 25 c11 19 14 21 15 8 0 -10 5 -18 10 -18 6 0 10 36
10 89 l0 88 25 -5 c14 -2 59 -1 100 3 59 5 75 10 80 25 9 28 36 33 57 12 34
-33 -12 -81 -49 -51 -13 11 -15 11 -12 -5 2 -11 13 -20 24 -22 25 -4 65 22 65
42 0 8 7 17 15 21 14 5 14 8 -1 25 -10 10 -24 16 -31 13 -8 -2 -12 -1 -10 3 2
4 11 24 21 45 10 21 24 41 32 44 20 8 45 -17 42 -41 -2 -16 -10 -21 -35 -21
-28 0 -31 -2 -18 -14 20 -21 62 0 71 35 6 21 2 31 -16 46 -40 32 -80 17 -80
-31 0 -23 -1 -23 -13 -7 -21 28 -61 17 -67 -18 -6 -34 -24 -41 -132 -52 l-68
-7 0 114 0 114 47 19 c29 12 71 45 112 85 63 65 64 66 58 32 -4 -18 -7 -48 -7
-66 0 -26 -9 -42 -40 -72 -29 -28 -37 -42 -30 -53 16 -25 61 0 94 53 22 36 31
65 34 109 4 52 9 64 36 89 31 27 31 28 31 134 1 107 9 131 40 119 7 -3 34 9
62 26 40 25 66 33 137 40 112 11 174 32 222 75 22 19 42 34 45 35 4 0 10 -17
14 -37z m260 -8 c0 -13 -8 -21 -22 -23 -17 -3 -23 2 -23 16 0 10 3 22 7 26 13
13 38 1 38 -19z m-1652 -50 c20 -8 53 -15 74 -15 85 -1 230 -70 233 -110 0
-12 -76 3 -92 17 -24 21 -87 42 -129 43 -20 0 -55 6 -77 14 -36 13 -40 13 -35
0 3 -8 0 -14 -6 -14 -6 0 -11 17 -11 40 0 22 2 40 4 40 2 0 20 -7 39 -15z
m1672 -16 c14 -42 -45 -66 -61 -24 -10 25 4 45 30 45 16 0 27 -7 31 -21z
m-2003 -49 c29 -22 96 -62 148 -89 173 -88 281 -114 453 -109 59 2 107 0 107
-4 0 -14 -131 -88 -192 -109 -77 -26 -213 -28 -301 -5 -69 19 -165 66 -228
112 -39 29 -47 40 -52 76 -3 24 -4 44 -2 46 1 2 27 -15 56 -38 97 -74 299
-160 378 -160 23 0 31 38 9 44 -186 49 -269 86 -374 163 -56 41 -64 51 -64 80
0 18 2 33 5 33 2 0 28 -18 57 -40z m1748 -11 c0 -36 -2 -40 -15 -29 -15 13
-20 51 -8 63 15 16 23 4 23 -34z m-2130 -24 c-12 -23 -11 -27 14 -50 15 -14
31 -25 35 -25 17 0 19 -28 3 -59 -12 -26 -13 -37 -4 -52 15 -24 15 -34 -1 -51
-7 -7 -17 -24 -23 -38 -11 -25 -11 -25 -24 15 -7 22 -15 103 -17 180 -4 134
-4 139 13 123 15 -15 16 -21 4 -43z m125 -20 c20 -19 25 -34 25 -75 0 -41 -5
-56 -25 -75 -28 -29 -43 -31 -52 -9 -3 9 3 23 16 35 23 22 29 77 9 97 -7 7
-25 12 -40 12 -26 0 -37 17 -21 33 15 16 65 6 88 -18z m2310 0 c0 -18 -8 -20
-68 -23 -55 -2 -68 0 -74 14 -9 23 7 29 79 29 56 0 63 -3 63 -20z m-271 -29
c-6 -16 -8 -16 -25 0 -15 13 -16 20 -7 31 10 12 13 12 25 0 8 -7 11 -21 7 -31z
m-1900 -54 c14 -140 73 -299 158 -430 l41 -63 -39 -33 -39 -34 29 -30 c28 -30
28 -52 1 -52 -7 0 -23 12 -35 27 -15 20 -23 24 -32 15 -9 -9 -7 -17 7 -32 14
-15 16 -23 7 -32 -9 -9 -16 -7 -32 7 -19 18 -21 18 -40 0 -16 -14 -23 -16 -32
-7 -9 9 -6 17 10 35 l22 23 -25 24 c-14 13 -25 29 -25 37 0 21 25 15 50 -12
28 -30 54 -17 27 13 -9 10 -17 24 -17 30 0 18 31 14 45 -5 13 -17 14 -17 34 1
l20 18 -28 42 c-16 22 -38 60 -50 84 -12 23 -23 42 -24 42 -2 0 -13 -10 -25
-23 l-22 -23 25 -34 c14 -19 25 -40 25 -47 0 -26 -36 -12 -58 23 l-24 36 -28
-27 c-17 -17 -35 -25 -44 -22 -24 10 -19 24 18 53 l34 28 -19 24 c-15 20 -17
28 -7 39 10 13 15 11 33 -11 l21 -26 27 28 27 28 -21 53 c-20 55 -43 158 -53
243 -4 38 -2 49 11 57 30 16 41 1 47 -67z m1146 36 c-15 -52 -61 -90 -137
-113 -20 -6 -23 -3 -23 23 0 26 7 33 53 56 29 14 64 37 77 50 29 32 41 25 30
-16z m1058 -51 c-6 -90 -13 -105 -39 -81 -25 22 -24 30 5 61 22 24 23 28 10
49 -14 20 -13 23 3 33 10 6 20 11 22 11 2 0 2 -33 -1 -73z m-230 12 c6 -99
-71 -320 -159 -456 -40 -62 -41 -62 -65 -46 -23 15 -24 17 -9 37 82 115 140
250 168 396 12 58 26 108 31 112 21 14 31 1 34 -43z m177 -4 c0 -16 -8 -21
-40 -25 -40 -5 -40 -5 -45 -55 -4 -41 -9 -51 -26 -53 -11 -2 -27 4 -34 12 -10
13 -9 20 4 41 9 13 16 33 16 45 0 36 36 61 83 58 34 -2 42 -7 42 -23z m-1268
-131 c-134 -125 -251 -176 -402 -177 -109 0 -193 20 -294 71 -66 33 -76 42
-88 76 -7 22 -11 41 -9 43 2 2 30 -12 62 -31 75 -44 191 -83 275 -92 145 -15
297 39 434 154 69 58 70 58 73 33 3 -21 -7 -36 -51 -77z m970 43 c14 5 8 -47
-10 -82 -9 -17 -12 -13 -23 30 -17 65 -17 67 4 57 9 -5 23 -7 29 -5z m286 -56
c-3 -70 -31 -149 -58 -167 -21 -14 -30 -14 -54 -5 -44 19 -54 52 -33 109 10
27 24 47 32 47 16 0 17 -21 4 -83 -6 -31 -5 -33 17 -30 20 3 26 13 41 77 22
94 25 104 41 98 7 -2 11 -20 10 -46z m-2218 9 c0 -8 -14 -17 -33 -21 -43 -9
-55 -21 -50 -50 3 -21 8 -24 45 -24 22 0 44 -3 49 -7 14 -14 -19 -38 -53 -38
-46 0 -69 14 -82 50 -12 37 -1 71 31 94 28 20 93 18 93 -4z m1645 -25 c0 -22
-17 -35 -44 -35 -8 0 -11 10 -8 29 3 22 9 29 28 29 18 0 24 -6 24 -23z m-1381
-119 c35 -19 134 -52 181 -62 54 -11 231 -6 246 7 9 7 14 8 14 1 0 -14 -45
-42 -68 -42 -11 0 -35 -11 -55 -24 -32 -22 -36 -23 -51 -8 -8 9 -48 22 -88 29
-128 24 -146 23 -68 -2 41 -14 87 -25 102 -25 24 0 32 -9 64 -72 20 -40 43
-81 52 -91 8 -9 13 -19 11 -20 -2 -2 -19 -14 -37 -26 l-33 -23 -54 42 c-31 24
-69 58 -86 77 -17 19 -33 33 -36 30 -3 -4 2 -13 11 -22 25 -25 19 -29 -11 -9
-33 21 -52 44 -53 63 0 11 4 11 18 -2 31 -28 34 -19 6 18 -14 19 -38 41 -52
48 -22 10 -65 77 -85 129 -5 15 -2 16 19 8 13 -5 37 -16 53 -24z m-350 -26 c6
0 17 -11 26 -24 14 -21 14 -26 -9 -66 -27 -48 -30 -47 -63 49 -29 82 -29 87 6
62 16 -12 34 -21 40 -21z m2296 -37 c-4 -10 -8 -22 -9 -28 -1 -5 -10 -27 -19
-49 -9 -21 -17 -42 -17 -47 0 -5 -4 -9 -8 -9 -9 0 18 116 31 138 12 19 30 15
22 -5z m-159 -7 c11 -27 -118 -250 -152 -263 -34 -13 -32 15 5 67 21 30 55 86
75 124 20 38 39 73 42 78 8 13 24 10 30 -6z m92 -20 c7 -32 -150 -296 -185
-310 -6 -3 -16 1 -22 8 -8 10 0 27 33 69 24 32 67 102 96 158 48 94 70 116 78
75z m-368 -97 c-6 -13 -23 -33 -37 -43 -29 -21 -23 -8 17 41 29 35 35 36 20 2z
m-1838 9 c8 -7 27 -20 43 -28 17 -9 33 -28 39 -45 4 -17 13 -38 18 -48 10 -20
2 -57 -12 -57 -11 0 -40 41 -79 113 -38 71 -42 95 -9 65z m118 -28 c0 -11 -6
-20 -13 -20 -19 0 -27 10 -20 26 8 21 33 17 33 -6z m1760 -46 c11 -13 5 -24
-46 -75 -32 -33 -76 -72 -97 -86 -35 -25 -39 -25 -55 -10 -15 16 -15 18 3 36
111 103 166 151 173 151 5 0 15 -7 22 -16z m-1442 -55 c144 -135 330 -221 536
-249 103 -13 106 -14 106 -42 0 -20 -4 -21 -87 -15 -107 7 -241 44 -348 96
-77 38 -80 39 -93 20 -17 -25 -44 -24 -67 1 -14 16 -16 25 -8 42 9 21 2 31
-71 100 -78 74 -80 78 -62 93 11 8 22 15 24 15 3 0 34 -28 70 -61z m286 -21
c21 -27 23 -34 10 -38 -12 -5 -10 -10 11 -30 24 -22 37 -16 14 7 -8 8 -8 13 0
18 6 3 14 0 17 -9 5 -14 86 -66 179 -115 l40 -22 -52 5 c-71 6 -193 45 -193
62 0 8 -19 23 -42 35 -24 12 -37 15 -30 8 36 -38 -20 -22 -77 22 l-24 19 27 0
c14 0 26 5 26 10 0 6 6 10 13 10 8 0 20 11 27 25 17 32 23 32 54 -7z m821 -5
c34 -39 34 -56 -1 -90 -19 -19 -40 -17 -24 2 16 19 7 19 -30 0 -18 -10 -27
-21 -24 -29 4 -11 -7 -18 -38 -26 -23 -6 -53 -15 -66 -20 -12 -5 -53 -12 -90
-15 l-67 -5 58 25 c79 33 207 127 207 152 0 8 31 43 38 43 3 0 20 -17 37 -37z
m419 -72 c54 -56 30 -88 -26 -34 -23 22 -30 24 -43 13 -14 -12 -13 -16 11 -41
26 -27 26 -49 0 -49 -7 0 -23 11 -36 24 -20 22 -24 23 -37 10 -18 -18 -29 -18
-36 0 -6 16 93 116 115 116 8 0 31 -18 52 -39z m88 -49 c-88 -101 -212 -207
-212 -181 0 8 33 44 73 82 39 37 79 74 87 82 8 8 23 23 34 33 10 9 28 26 40
38 43 42 26 2 -22 -54z m-415 52 c3 -8 1 -20 -5 -26 -15 -15 -43 8 -35 28 7
19 32 18 40 -2z m-1327 -19 l26 -25 23 24 c22 24 51 25 51 3 0 -6 -10 -21 -22
-34 -20 -22 -21 -24 -3 -43 17 -19 15 -50 -4 -50 -5 0 -17 10 -25 22 -15 20
-16 21 -34 5 -37 -34 -67 -9 -33 27 21 22 21 23 3 40 -17 15 -20 15 -32 1 -15
-18 -36 -20 -46 -3 -7 11 41 58 60 58 6 0 22 -11 36 -25z m-151 2 c14 3 20 -3
24 -26 4 -20 16 -35 32 -43 24 -11 35 -38 16 -38 -13 0 -101 102 -100 115 0 5
3 5 5 -1 3 -7 13 -10 23 -7z m1449 -39 c23 -23 11 -36 -69 -72 -104 -48 -212
-76 -321 -83 -77 -5 -88 -4 -94 11 -11 27 5 34 104 46 111 14 203 39 286 79
70 34 78 35 94 19z m166 -47 c33 -34 41 -38 53 -26 13 13 43 11 43 -4 0 -4
-18 -25 -40 -46 -24 -24 -40 -48 -40 -63 0 -17 -5 -23 -17 -20 -23 4 -28 47
-9 73 14 19 12 23 -26 62 -38 38 -43 63 -14 63 6 0 29 -18 50 -39z m-1214 -45
c24 -7 41 -23 54 -47 24 -44 16 -75 -14 -59 -11 6 -18 15 -16 19 13 21 -26 49
-84 60 -50 10 -60 15 -60 32 0 19 4 20 43 14 23 -4 58 -12 77 -19z m1118 -8
c17 -17 15 -48 -2 -48 -8 0 -18 5 -21 10 -11 17 -33 11 -40 -11 -8 -24 -38
-22 -43 3 -8 41 75 77 106 46z m-1324 -9 c21 -10 23 -15 15 -31 -5 -10 -7 -22
-4 -27 9 -16 -32 0 -54 20 -26 24 -27 36 -3 42 9 3 18 5 19 6 1 0 13 -4 27
-10z m364 -97 c3 -69 4 -72 27 -72 24 0 25 2 25 76 0 66 2 75 18 72 14 -3 17
-16 20 -83 2 -43 8 -85 14 -92 5 -7 8 -20 4 -28 -5 -14 -9 -14 -35 0 -17 8
-40 15 -51 15 -52 0 -60 15 -60 106 0 76 2 85 18 82 14 -3 18 -16 20 -76z
m807 54 c0 -22 -14 -29 -34 -17 -19 12 -6 43 16 39 10 -2 18 -12 18 -22z
m-1010 -11 c17 -8 52 -33 79 -57 42 -37 46 -45 33 -56 -12 -10 -24 -5 -68 33
-40 34 -63 46 -99 51 -59 8 -75 17 -66 39 5 14 14 15 49 10 23 -4 56 -13 72
-20z m979 -37 c9 -12 16 -34 16 -48 0 -14 5 -31 12 -38 19 -19 -4 -37 -30 -23
-14 8 -22 23 -24 49 -2 29 -7 37 -23 37 -18 0 -20 -8 -23 -62 -2 -47 -7 -63
-17 -63 -8 0 -15 5 -15 10 0 6 -11 10 -24 10 -32 0 -51 23 -32 39 7 6 20 9 28
6 11 -4 17 2 20 19 4 22 1 25 -26 28 -48 5 -40 32 11 39 24 3 46 8 49 12 16
16 63 6 78 -15z m202 -3 c8 -19 -12 -44 -43 -56 -32 -12 -73 5 -73 31 0 22 12
25 40 10 15 -8 21 -6 30 10 13 24 38 26 46 5z m-618 -29 c5 -45 -17 -87 -56
-103 -26 -11 -37 -11 -48 -2 -18 15 -2 36 29 41 17 2 23 11 25 38 4 51 10 62
29 58 11 -2 19 -14 21 -32z m102 10 c15 -17 36 -26 64 -28 28 -2 41 -8 41 -18
0 -11 -13 -16 -47 -18 -40 -3 -51 1 -82 29 -20 17 -36 37 -36 45 0 22 34 16
60 -10z m-648 -31 c21 -14 38 -30 38 -35 0 -6 18 -10 40 -10 29 0 46 -7 65
-26 14 -14 25 -28 23 -30 -8 -7 -76 17 -88 31 -7 8 -19 15 -27 15 -20 0 -104
44 -133 70 l-25 21 35 -5 c19 -4 52 -18 72 -31z m448 14 c0 -18 -5 -20 -52
-17 -41 2 -54 7 -56 21 -3 14 5 17 52 17 50 0 56 -2 56 -21z m757 -16 c-21
-21 -27 -15 -16 16 7 19 12 22 21 13 9 -9 8 -16 -5 -29z m-135 -32 c36 -18 36
-19 15 -30 -12 -6 -42 -18 -66 -26 l-45 -16 23 25 c12 13 24 32 26 42 4 24 4
24 8 24 1 0 19 -8 39 -19z m-658 -21 c5 -5 6 -16 2 -25 -11 -29 -86 -1 -86 32
0 12 8 14 38 8 20 -3 41 -10 46 -15z m330 -26 c21 -8 20 -32 -1 -37 -35 -9
-143 -6 -149 4 -16 27 6 39 70 39 35 0 71 -3 80 -6z m-184 -26 c0 -6 12 -21
27 -34 24 -21 25 -24 9 -30 -43 -16 -348 28 -396 58 -10 6 -3 6 20 2 19 -4 43
-7 53 -5 20 2 65 2 164 -1 57 -2 76 1 89 14 18 17 34 15 34 -4z m404 7 c-1
-13 -51 -31 -60 -22 -4 4 -1 14 6 22 14 17 55 17 54 0z m-109 -19 l30 -13 -40
-11 c-41 -12 -85 -16 -85 -7 0 3 8 14 17 25 20 23 36 24 78 6z"/>
        <path d="M1342 2598 c-6 -6 -12 -20 -12 -30 0 -13 8 -18 31 -18 27 0 30 3 27
27 -3 30 -26 41 -46 21z"/>
        <path d="M1047 2519 c-14 -9 -26 -59 -13 -59 19 0 56 22 56 34 0 22 -23 36
-43 25z"/>
        <path d="M942 2088 c-14 -14 -16 -40 -3 -53 6 -6 -6 -35 -30 -74 -46 -75 -48
-93 -14 -115 31 -20 32 -20 38 6 4 14 0 26 -11 34 -16 12 -15 17 13 70 17 32
40 60 53 65 19 7 23 15 20 41 -2 27 -8 34 -28 36 -14 2 -31 -3 -38 -10z"/>
        <path d="M1352 2218 c-30 -30 3 -77 40 -57 24 13 23 46 -1 59 -24 13 -24 13
-39 -2z"/>
        <path d="M1292 2108 c-28 -28 -3 -72 39 -66 30 4 47 33 33 56 -14 21 -55 27
-72 10z"/>
        <path d="M1137 1919 c-19 -27 -10 -58 19 -65 27 -7 40 0 54 26 8 15 6 24 -10
40 -26 26 -45 25 -63 -1z"/>
        <path d="M1302 1897 c-6 -6 -14 -25 -17 -40 -4 -15 -14 -31 -22 -36 -23 -12
37 -31 122 -38 l70 -6 0 27 c0 21 -5 26 -26 26 -18 0 -28 -6 -32 -20 -6 -25
-43 -27 -56 -2 -11 21 3 52 23 52 8 0 19 7 27 16 11 14 9 15 -24 9 -30 -6 -37
-4 -37 9 0 19 -14 21 -28 3z"/>
        <path d="M1085 1816 c-22 -16 -15 -50 11 -54 25 -4 47 19 38 41 -8 22 -29 28
-49 13z"/>
        <path d="M1004 1750 c-1 -24 4 -31 29 -40 17 -5 32 -8 35 -6 4 5 -50 76 -58
76 -3 0 -5 -13 -6 -30z"/>
        <path d="M1182 1758 c-17 -17 -15 -53 3 -68 20 -17 62 -5 70 21 13 40 -44 76
-73 47z"/>
        <path d="M1611 2251 c-15 -27 9 -56 37 -47 24 8 29 35 10 54 -17 17 -36 15
-47 -7z"/>
        <path d="M1555 2175 c13 -70 57 -82 156 -42 48 19 55 26 47 40 -12 22 -29 21
-77 -3 -47 -25 -82 -19 -112 19 l-21 26 7 -40z"/>
        <path d="M2185 1730 c-18 -29 36 -41 70 -16 18 13 18 14 -8 9 -15 -3 -33 0
-41 6 -10 8 -16 9 -21 1z"/>
        <path d="M1593 1227 c-41 -15 -52 -27 -26 -27 12 0 31 9 44 20 27 22 26 23
-18 7z"/>
        <path d="M2241 1307 c-7 -7 -11 -51 -11 -112 0 -93 1 -101 20 -102 11 -1 22 2
25 7 8 13 17 169 10 189 -7 24 -29 33 -44 18z"/>
        <path d="M2163 1264 c0 -8 7 -14 14 -14 8 0 13 -6 11 -14 -2 -8 1 -15 6 -16
19 -1 13 25 -9 42 -18 13 -22 14 -22 2z"/>
        <path d="M1847 1219 c4 -21 1 -28 -16 -34 -12 -3 -19 -11 -15 -16 3 -6 12 -8
20 -5 7 3 16 0 20 -6 4 -7 3 -8 -4 -4 -8 5 -12 0 -12 -14 0 -17 3 -19 18 -11
14 7 16 20 14 63 -3 38 -8 55 -17 55 -10 0 -12 -9 -8 -28z"/>
        <path d="M1367 1109 c-62 -10 -54 -19 18 -19 59 0 66 2 55 15 -14 17 -24 20
-15 5 3 -5 2 -10 -4 -10 -5 0 -11 4 -13 8 -1 4 -20 5 -41 1z"/>
        <path d="M1625 1078 c8 -32 -16 -52 -52 -43 -23 5 -25 4 -14 -9 18 -21 44 -20
64 2 20 22 26 64 9 70 -9 3 -11 -3 -7 -20z"/>
        <path d="M1291 1067 c-1 -14 -6 -17 -21 -12 -27 8 -25 0 8 -41 15 -18 35 -34
46 -34 15 0 16 3 6 15 -7 8 -10 22 -6 30 3 9 0 15 -9 15 -7 0 -16 10 -18 23
-3 16 -5 17 -6 4z"/>
        <path d="M1363 1043 c-21 -8 -16 -61 7 -73 27 -15 60 4 60 33 0 38 -29 56 -67
40z"/>
        <path d="M2123 1043 c-7 -3 -13 -16 -13 -30 0 -20 4 -24 23 -21 13 2 23 11 25
24 3 22 -13 34 -35 27z"/>
        <path d="M1620 986 c-6 -8 -10 -25 -8 -38 4 -32 52 -38 68 -9 22 43 -29 83
-60 47z"/>
        <path d="M2034 945 c-8 -19 12 -36 33 -28 19 7 12 37 -10 41 -9 2 -20 -4 -23
-13z"/>
        <path d="M1653 772 c-21 -14 -20 -57 3 -66 42 -16 74 43 35 64 -23 12 -23 12
-38 2z"/>
        <path d="M1560 739 c-9 -16 -9 -28 -1 -45 12 -28 20 -29 46 -10 16 12 18 19
10 42 -13 36 -40 42 -55 13z m48 -22 c4 -20 -25 -34 -40 -19 -15 15 -1 44 19
40 10 -2 19 -11 21 -21z"/>
        <path d="M1310 710 c8 -5 40 -10 70 -10 30 0 62 5 70 10 10 7 -11 10 -70 10
-59 0 -80 -3 -70 -10z"/>
        <path d="M1140 1315 c-15 -18 -5 -35 21 -35 12 0 19 7 19 19 0 24 -25 34 -40
16z"/>
        <path d="M802 996 c2 -1 12 -8 22 -16 13 -10 17 -10 12 -2 -4 6 -3 12 3 12 16
0 19 -24 3 -36 -12 -9 -12 -13 -2 -19 9 -6 11 -4 5 5 -6 10 -4 12 8 7 11 -4
15 -1 12 14 -6 30 -13 37 -40 37 -14 0 -25 -1 -23 -2z"/>
        <path d="M911 961 c-10 -7 -11 -13 -1 -30 15 -29 45 -23 45 9 0 26 -20 36 -44
21z"/>
    </g>
</svg>
